<?xml version="1.0" encoding="utf-8"?>
<!-- Generator: Adobe Illustrator 26.0.2, SVG Export Plug-In . SVG Version: 6.00 Build 0)  -->
<!DOCTYPE svg PUBLIC "-//W3C//DTD SVG 1.1//EN" "http://www.w3.org/Graphics/SVG/1.1/DTD/svg11.dtd" [
	<!ENTITY ns_extend "http://ns.adobe.com/Extensibility/1.0/">
	<!ENTITY ns_ai "http://ns.adobe.com/AdobeIllustrator/10.0/">
	<!ENTITY ns_graphs "http://ns.adobe.com/Graphs/1.0/">
	<!ENTITY ns_vars "http://ns.adobe.com/Variables/1.0/">
	<!ENTITY ns_imrep "http://ns.adobe.com/ImageReplacement/1.0/">
	<!ENTITY ns_sfw "http://ns.adobe.com/SaveForWeb/1.0/">
	<!ENTITY ns_custom "http://ns.adobe.com/GenericCustomNamespace/1.0/">
	<!ENTITY ns_adobe_xpath "http://ns.adobe.com/XPath/1.0/">
]>
<svg version="1.1" xmlns:x="&ns_extend;" xmlns:i="&ns_ai;" xmlns:graph="&ns_graphs;"
	 xmlns="http://www.w3.org/2000/svg" xmlns:xlink="http://www.w3.org/1999/xlink" x="0px" y="0px"
	 viewBox="0 0 5964.8999023 1876.9907227" style="enable-background:new 0 0 5964.8999023 1876.9907227;" xml:space="preserve">
	<style type="text/css">
		.st0{fill:#E8E6E6;}
	</style>
	<metadata>
		<sfw  xmlns="&ns_sfw;">
			<slices></slices>
			<sliceSourceBounds  bottomLeftOrigin="true" height="1626.4238281" width="5964.9487305" x="-0.0246781" y="-204.8238525">
				</sliceSourceBounds>
		</sfw>
	</metadata>
	<g id="Logo_White__x23_e8e6e6">
		<g>
			<path class="st0" d="M313.3999939,3.0999999c65.3999939,0,228.8999939-1.6,299.0000305-1.6
				c3.0999756,0,3.0999756,15.6000004,0,15.6000004c-77.9000244,0-98.0999756,1.5999928-101.2000122,4.6999989
				C508.1000061,24.899992,505,121.5,505,249.1000061c0,158.8000183-1.6000061,124.6000061-1.6000061,543.4000244
				c0,124.5999756,1.6000061,130.7999878,3.1000061,132.4000244c1.6000061,1.5,4.7000122,1.5,7.7999878,1.5
				c71.5999756,0,130.7999878-42,186.8999634-98.0999756c70.0999756-70.0999756,154.2000122-193.0999756,227.2999878-348.7999878
				c3.0999756-10.8999939,15.682312-9.2996826,15.5999756,1.6000061c-0.7999878,105.9090881-6.2000122,367.5000305-12.5,457.7999573
				c0,7.7999878-1.6011353,11.0214844-7.7999878,10.9000244c-119.9690552-2.3504639-823.6900635-2.2999878-920.2999878-1.5
				c-4.6998386,0.0389404-4.6991401-15.5100708,0-15.5999756c81.0444717-1.550293,91.8999863-3.0999756,95-6.2000122
				c3.0999832-3.0999756,6.1999969-31.0999756,6.1999969-104.2999878c0-205.5,3.0999985-446.8999939,3.0999985-568.4000244
				c0-208.6999969-1.5999985-224.1999969-7.8000031-230.3999939c-4.6999969-4.6999989-31.1841965-6.9995728-91.9000015-7.8000002
				C3.5003996,15.5394182,3.5,0,8.1999998,0C76.6999969,0,240.1999969,3.0999999,313.3999939,3.0999999z"/>
			<path class="st0" d="M1773.8000488,733.4000244c-52.9000244,152.5999756-168.1999512,232-323.9000244,232
				c-146.4000244,0-278.6917725-56.1083374-353.5-130.7999878C1040.3062744,778.59375,1004.5,714.7000122,1004.5,607.3000488
				c0-87.2000122,38.9250488-174.375,102.8000488-238.2000122C1183.6300049,292.8299255,1286.4000244,235.2000427,1412.5,235.2000427
				c118.3000488,0,205.5250244,43.5749512,269.4000244,107.3999939c60.7237549,60.6762085,102.8000488,137,102.8000488,256.8999634
				c0,9.4000244-1.5999756,10.9161987-7.8000488,10.9000244c-306.8031006-0.7999878-400.2000732,1.5-432.9000244,4.7000122
				c0,138.6000366,10.9000244,197.7999878,31.0999756,238.2000122C1400,903.1000366,1453,924.9000244,1516.7999268,924.9000244
				c96.5,0,183.6999512-62.2999878,238.3000488-199.2999878
				C1762.9000244,719.4000244,1775.3000488,727.2000122,1773.8000488,733.4000244z M1376.6999512,274.1000061
				c-20.21521,40.5424194-26.5,126.1000061-31.1999512,317.7000427l130.8000488-1.5999756
				c-1.5999756-271-18.6999512-337.8999023-65.4000244-337.8999939
				C1392.1999512,252.3000488,1382.9261475,261.6130066,1376.6999512,274.1000061z"/>
			<path class="st0" d="M2351.1999512,945.2000122c-81,0-179.1000977,1.5999756-244.5,1.5999756
				c-3.1000977,0-3.0996094-15.5431519,0-15.5999756c43.6220703-0.8001099,68.5-3.0999756,68.5-15.5999756
				c0-9.2999878-0.1462402-18.6168823-24.8999023-62.2999878c-28.166748-49.7059326-74.6999512-129.2000122-112.0999756-186.9000244
				c-28,34.2999878-52.8395996,68.5432739-84.0999756,112.0999756
				c-27.9460449,38.9387817-38.9000244,65.4000244-38.9000244,91.9000244c0,38.9000244,29.5999756,51.4000244,84.0999756,63.7999878
				c3.0999756,0,3.0999756,14-1.5999756,14c-98.0999756,0-169.6999512-1.5999756-274.0999756-1.5999756
				c-3.0999756,0-4.6999512-12.5-1.5999756-14c15.5999756-4.7000122,32.7034912-10.8930054,54.5-21.7999878
				c62.3100586-31.1799316,112.3238525-91.7111816,163.5-152.5999756c31.3374023-37.2849121,51.4000244-65.4000244,85.6999512-109
				c-43.5999756-74.7000122-135.4229736-227.3499451-190-311.3999939
				c-20.2714844-31.2185974-38.9000244-57.5999756-48.3000488-62.2999878
				c-6.1999512-3.0999756-17.0706787-3.8997803-49.8000488-4.7000122c-4.6984863-0.1148682-3.0999756-15.6000061,0-15.6000061H2236
				c3.1000977,0,3.1000977,15.6000061,0,15.6000061c-57.6000977,3.1000061-70.125,4.6748047-74.8000488,9.2999878
				c-4.7250977,4.6746826-3.1203613,14.0112915,12.5,42c37.3515625,66.927002,68.5,121.5,112.1000977,191.5000305
				c23.3999023-28,50.1772461-63.5408936,77.8999023-104.2999878c28.3886719-41.7382812,32.6999512-60.7000122,32.6999512-81
				c0-31.2000122-17.1000977-54.5-70.1000977-59.2000122c-3.1000977,0-1.4997559-15.633194,1.6000977-15.6000061
				c74.7128906,0.8000488,166.5874023,0.8000488,242.8999023,0c3.0998535-0.0325012,4.6999512,12.5,1.5,14
				c-54.5,18.7000122-91.8999023,48.2999573-133.8999023,90.3000183
				c-23.3999023,23.3999634-46.6999512,51.3999939-76.3000488,88.7999878l-65.3999023,85.5999756
				c54.5,96.5,113.8266602,193.020874,176,292.7000122c43.689209,70.0444946,62.3000488,99.7000122,68.5,102.7999878
				s15.572998,5.4497681,46.6999512,6.2000122c3.0991211,0.074707,3.1000977,15.5894775,0,15.5999756
				C2528.7990723,949.7000732,2441.6000977,945.2000122,2351.1999512,945.2000122z"/>
			<path class="st0" d="M2810.8000488,272.5c0,18.7000122,102.8000488,18.7000122,102.8000488,141.7000122
				c0,90.2999878-65.3999023,140.1000366-147.8999023,140.1000366c-85.6000977,0-147.8999023-49.7999878-147.8999023-133.8999939
				c0-40.5,14-70.1000061,46.6999512-102.8000183c51.3999023-51.3999939,130.8000488-79.3999939,264.6999512-79.3999939
				c171.3000488,0,252.2792969,37.4207153,305.1999512,90.3000183c63.875,63.8250122,82.5,157.2999878,82.5,252.2999878
				c0,68.5-3.1000977,129.2000122-3.1000977,285c0,23.4000244,9.3000488,29.5999756,20.1999512,29.5999756
				c18.6999512,0,41.25-34.2924805,42-146.4000244c0.0415039-6.1998901,20.3000488-7.7999878,20.3000488,0
				c0,140.0999756-29.6000977,211.7999878-183.8000488,211.7999878c-126.1000977,0-191.5-45.2000122-218-113.7000122
				c-38.8999023,68.5-112.1000977,116.7999878-211.8000488,116.7999878
				c-116.8000488,0-202.3999023-79.4000244-202.3999023-179.1000366c0-54.5,18.6750488-93.4249268,49.8000488-124.5999756
				c52.8574219-52.9423828,137-84.0999756,364.3999023-107.5c1.6000977-24.9000244,1.6340332-109.0011597,0-155.7000122
				c-1.4694824-42.0010681-9.3000488-82.5-32.6999512-105.8999939
				c-18.6999512-18.7000122-49.8000488-34.3643188-99.6999512-34.2999878
				C2823.3000488,256.8499756,2810.8000488,264.7000122,2810.8000488,272.5z M2901.1000977,744.2999878
				c0,109,14,126.0999756,38.8999023,126.0999756c17.1000977,0,28.0200195-12.4899902,37.3999023-31.2000122
				c7.8166504-15.5916748,12.6054688-37.3961182,14-76.2999878C2993.1311035,714.6044922,2993,635.1999512,2994.5,569.7999268
				C2921.3999023,579.2999878,2901.1000977,612,2901.1000977,744.2999878z"/>
			<path class="st0" d="M4174,733.4000244c-52.8999023,152.5999756-168.1999512,232-323.8999023,232
				c-146.3999023,0-278.6916504-56.1083374-353.5-130.7999878c-56.09375-56.0062866-91.8999023-119.9000244-91.8999023-227.2999878
				c0-87.2000122,38.9248047-174.3749695,102.8000488-238.2000122
				c76.329834-76.2700806,179.1000977-133.8999939,305.1999512-133.8999939
				c118.3000488,0,205.5249023,43.5750732,269.3999023,107.3999939c60.7241211,60.6763,102.7998047,137,102.7998047,256.8999634
				c0,9.4000244-1.6000977,10.9161987-7.7998047,10.9000244c-306.8032227-0.7999878-400.1999512,1.5-432.8999023,4.7000122
				c0,138.6000366,10.9399414,197.7799072,31.1999512,238.2000122
				c24.9492188,49.7753296,77.8999023,71.5999756,141.6999512,71.5999756c96.5,0,183.7998047-62.2999878,238.2001953-199.2999878
				C4163.1000977,719.4000244,4175.6000977,727.2000122,4174,733.4000244z M3777,274.1000061
				c-20.2150879,40.542511-26.5,126.1000061-31.1999512,317.7000427l130.8000488-1.5999756
				c-1.6000977-271-18.6999512-337.8999023-65.3999023-337.8999939C3792.5,252.3000488,3783.2260742,261.6130371,3777,274.1000061z"
				/>
			<path class="st0" d="M4959.1000977,836.2000122c-79.3999023,79.4000854-191.5,129.2000122-317.7001953,129.2000122
				c-138.6000977,0-264.7001953-59.2000122-333.2001953-127.7000122c-54.5-54.5-90.2998047-130.7999878-90.2998047-230.5
				c0-95,32.7001953-175.9999695,98.1000977-241.3999939C4393.7998047,288.0000305,4524.7001953,235,4647.7001953,235
				c129.2001953,0,244.5,60.7001038,323.8999023,140.1000061c59.2001953,59.2000732,88.8452148,135.5,88.7998047,225.8000183
				C5060.3496094,700.7000732,5019.7998047,775.500061,4959.1000977,836.2000122z M4688.1000977,272.5
				c-7.8222656-15.5888062-17.1000977-23.3999939-37.3999023-23.3999939c-23.3999023,0-37.4091797,13.9953918-45.2001953,29.6000061
				c-17.1201172,34.2898865-28,109-28,328.6000366c0,289.5999756,21.7998047,345.7000122,67,345.7000122
				c20.2001953,0,32.690918-10.9046021,42-29.5999756c17.0830078-34.3084106,23.3999023-90.2999878,23.3999023-379.8999634
				C4709.8999023,365.8999939,4702.1601562,300.5201721,4688.1000977,272.5z"/>
			<path class="st0" d="M5061.2998047,932.7000122c49.8168945-0.750061,65.3999023-3.0999756,68.5-6.2000122
				C5132.8999023,923.4000244,5136,904.7000122,5136,825.2999878c0-21.7999878-1.5-453.1000061-1.5-467.1000061
				c0-52.8999939-1.574707-76.3248291-6.2001953-81c-3.0834961-3.1166382-10.8847656-5.4499512-67-6.2000122
				c-4.699707-0.0628052-4.7001953-15.6000061,0-15.6000061c74.7001953,0,325.4858398-0.799942,392.3999023-1.6000061
				c7.7993164-0.0932465,7.9746094,3.1014099,7.7998047,14c-0.800293,49.8192749-1.6000977,112.1000061,0,154.1999817h1.6000977
				c35.7998047-104.2999878,101.2001953-191.5,232-191.5c135.5,0,200.8999023,77.8999939,200.8999023,230.5
				c0,65.4000244-3.1000977,194.7000122-3.1000977,291.2000122c0,126.0999756,3.1000977,169.7001343,7.7998047,174.4000244
				c3.1000977,3.1000366,13.9819336,5.4498901,60.7001953,6.2000122c4.699707,0.0754395,4.699707,15.6537476,0,15.5999756
				c-135.5263672-1.5501099-317.7001953-1.5999756-428.2001953-1.5999756c-4.7001953,0-4.7001953-15.5999756-1.6000977-15.5999756
				c24.8999023-1.5999756,32.7001953-1.6000977,35.7998047-4.7000122c3.1000977-3.1000977,3.1000977-9.2999878,3.1000977-63.7999878
				c0-18.7000122-1.5-426.7000122-1.5-437.6000061c0-31.1000061,0-65.3999939-34.2998047-65.3999939
				c-20.2001953,0-32.7182617,13.9909973-48.2998047,45.2000122c-17.1201172,34.2901001-26.5,82.5-26.5,147.9000244v336.4000244
				c0,24.9000244,1.6000977,34.2999878,4.7001953,37.4000244c3.1000977,3.0999756,15.6000977,3.0999756,37.3999023,4.7000122
				c4.7001953,0,3.1000977,15.5999756-1.6000977,15.5999756c-109,0-327,0-439.1000977,1.5999756
				C5058.2001953,948.2999878,5058.2006836,932.7467041,5061.2998047,932.7000122z"/>
		</g>
	</g>
	<g id="Outline_-_Sentinel_-_Light_00000098924218184014982200000001530383067882046883_">
		<g>
			<path class="st0" d="M192.6787109,1307.6416016c0-130.6806641,85.140625-224.4003906,196.6811523-224.4003906
				c60.0605469,0,99.6606445,23.0996094,126.0605469,53.4599609l13.2001953-51.4804688h26.4003906v157.0810547h-22.4404297
				c-25.0800781-82.5009766-66.0004883-128.7011719-144.5405273-128.7011719
				c-87.1206055,0-145.2011719,75.9003906-145.2011719,190.0810547c0,128.0410156,65.340332,196.6816406,151.8007812,196.6816406
				c76.5605469,0,127.3808594-54.7802734,140.5810547-143.8808594h29.7001953
				c-14.5200195,112.8603516-77.2207031,174.9013672-178.8608398,174.9013672
				C271.8793945,1531.3837891,192.6787109,1442.9423828,192.6787109,1307.6416016z"/>
			<path class="st0" d="M613.7558594,1494.4228516h56.7607422V1093.140625h-56.7607422v-25.7402344h99.0009766v427.0224609
				h56.7602539v26.4003906H613.7558594V1494.4228516z"/>
			<path class="st0" d="M813.0683594,1450.203125c0-18.4804688,5.9399414-37.6201172,19.1401367-50.8203125
				c21.7802734-21.7802734,52.1401367-31.0205078,112.8608398-41.5800781
				c41.5800781-7.2607422,47.5200195-9.2402344,47.5200195-19.8007812v-27.7197266
				c0-47.5205078-25.0800781-64.0205078-62.7001953-64.0205078c-25.7402344,0-49.5004883,7.9199219-62.0405273,20.4599609
				c11.2202148,6.6005859,17.8203125,15.8398438,17.8203125,29.0400391c0,18.4804688-13.2001953,31.6806641-31.0205078,31.6806641
				c-18.4799805,0-31.0200195-12.5400391-31.0200195-33.6601562c0-38.2802734,54.1201172-69.9609375,110.8803711-69.9609375
				c67.3208008,0,100.3208008,29.0400391,100.3208008,87.1210938v156.4208984
				c0,25.0800781,9.2402344,29.7001953,19.800293,29.7001953c12.5400391,0,20.4599609-8.5800781,29.0400391-27.7207031
				l16.5,7.9199219c-14.5200195,31.0205078-25.7402344,47.5205078-55.4404297,47.5205078
				c-27.0600586,0-46.2001953-15.1796875-47.5200195-55.4404297h-1.3203125
				c-22.4399414,33.6601562-58.7402344,56.7607422-100.3203125,56.7607422
				C842.7685547,1526.1035156,813.0683594,1496.4033203,813.0683594,1450.203125z M992.5893555,1431.7226562v-64.0205078
				c-5.9399414,1.9804688-19.1401367,3.9599609-34.3203125,6.6005859
				c-70.6201172,11.2197266-99.0004883,29.7001953-99.0004883,69.2998047c0,36.3007812,19.800293,54.1201172,54.1201172,54.1201172
				C952.9892578,1497.7226562,992.5893555,1465.3828125,992.5893555,1431.7226562z"/>
			<path class="st0" d="M1118.6411133,1494.4228516h50.1606445v-239.5810547h-50.1606445v-26.4003906h91.0805664v69.3007812
				c22.4404297-49.5,56.7602539-73.9208984,91.0805664-73.9208984c27.7202148,0,43.5600586,19.140625,43.5600586,41.5800781
				c0,18.4804688-13.199707,34.3203125-32.3398438,34.3203125c-17.1601562,0-30.3603516-12.5400391-30.3603516-30.359375
				c0-5.2802734,1.3203125-9.9003906,3.300293-14.5205078c-34.9804688-3.9599609-66.0004883,43.5605469-73.9204102,67.9804688
				v171.6005859h59.4003906v26.4003906h-151.8012695V1494.4228516z"/>
			<path class="st0" d="M1376.0356445,1494.4228516h56.7602539v-239.5810547h-56.7602539v-26.4003906h99.0004883v265.9814453
				h56.7602539v26.4003906h-155.7607422V1494.4228516z M1417.6157227,1125.4814453
				c0-18.4804688,13.2001953-33.0009766,32.340332-33.0009766c16.5,0,31.0200195,13.2001953,31.0200195,32.3408203
				c0,19.7998047-13.8598633,33-31.0200195,33C1431.4755859,1157.8212891,1417.6157227,1145.28125,1417.6157227,1125.4814453z"/>
			<path class="st0" d="M1651.9077148,1140.0009766v88.4404297h95.7001953v26.4003906h-95.7001953v194.0410156
				c0,29.7001953,13.199707,47.5205078,38.2802734,47.5205078c25.0800781,0,39.6000977-16.5,51.4799805-53.4609375
				l19.1401367,6.6005859c-15.8398438,58.0800781-43.5600586,77.2207031-79.8603516,77.2207031
				c-47.5200195,0-71.2802734-29.7001953-71.2802734-80.5205078v-191.4013672h-60.7202148v-26.4003906h60.7202148v-81.8398438
				L1651.9077148,1140.0009766z"/>
			<path class="st0" d="M1839.3466797,1577.5839844c0,10.5595703-3.2998047,18.4794922-7.9199219,24.4199219
				c22.4399414,1.9794922,50.8203125-11.2207031,79.2001953-80.5205078
				c-23.1000977-58.7402344-105.6005859-266.6416016-105.6005859-266.6416016h-39.6000977v-26.4003906h138.6005859v26.4003906
				h-51.4799805l81.1801758,215.8212891l82.5004883-215.8212891h-47.5200195v-26.4003906h110.8803711v26.4003906h-33.6601562
				l-99.6606445,250.8017578c-36.9599609,93.0605469-74.5800781,120.7802734-117.4804688,120.7802734
				c-34.3203125,0-52.800293-19.1396484-52.800293-41.5800781c0-20.4599609,13.8598633-36.3007812,33.6601562-36.3007812
				C1826.8066406,1548.5429688,1839.3466797,1560.4238281,1839.3466797,1577.5839844z"/>
			<path class="st0" d="M2216.2026367,1494.4228516h56.7602539v-239.5810547h-56.7602539v-26.4003906h99.0004883v265.9814453
				h56.7602539v26.4003906h-155.7607422V1494.4228516z M2257.7827148,1125.4814453
				c0-18.4804688,13.2001953-33.0009766,32.340332-33.0009766c16.5,0,31.0200195,13.2001953,31.0200195,32.3408203
				c0,19.7998047-13.8598633,33-31.0200195,33C2271.6425781,1157.8212891,2257.7827148,1145.28125,2257.7827148,1125.4814453z"/>
			<path class="st0" d="M2406.2739258,1494.4228516h50.1606445v-239.5810547h-50.1606445v-26.4003906h91.0805664v75.9003906
				c36.300293-63.3603516,77.8803711-81.8398438,112.2006836-81.8398438c51.4804688,0,80.5205078,31.6796875,80.5205078,93.7197266
				v178.2011719h49.5004883v26.4003906h-137.940918v-26.4003906h46.2001953v-154.4404297
				c0-32.3408203-3.9599609-54.7802734-17.1601562-67.9804688c-10.5600586-11.2197266-24.4199219-14.5205078-39.6000977-14.5205078
				c-49.5004883,0-92.4003906,57.4208984-92.4003906,95.0410156v141.9003906H2544.875v26.4003906h-138.6010742V1494.4228516z"/>
			<path class="st0" d="M2888.0712891,1494.4228516h69.2998047v-374.8818359h-69.2998047v-26.4003906h145.8603516
				l131.3408203,347.8222656h1.9804688l135.3007812-347.8222656h142.5605469v26.4003906h-72.6005859v374.8818359h72.6005859
				v26.4003906h-176.8808594v-26.4003906h58.0800781v-374.8818359h-2.6396484l-160.3808594,401.9423828h-15.8408203
				l-157.0810547-401.9423828h-2.6396484v374.8818359h62.0400391v26.4003906h-161.7001953V1494.4228516z"/>
			<path class="st0" d="M3536.8496094,1376.2822266c0.6601562,79.2001953,40.9199219,121.4404297,96.3603516,121.4404297
				c36.2998047,0,67.9804688-13.1992188,85.8007812-60.0595703h24.4199219
				c-18.4804688,58.0800781-60.0605469,89.1005859-116.8203125,89.1005859
				c-81.1806641,0-135.3007812-60.0605469-135.3007812-149.1611328c0-90.4208984,61.3798828-155.1005859,135.3007812-155.1005859
				c83.1601562,0,120.7802734,75.9003906,118.7998047,153.7802734H3536.8496094z M3538.1689453,1349.8818359h162.3613281
				c-4.6201172-66.6601562-31.0205078-103.6201172-75.2402344-103.6201172
				C3579.0898438,1246.2617188,3544.7695312,1285.2021484,3538.1689453,1349.8818359z"/>
			<path class="st0" d="M3800.8466797,1415.8828125h21.7802734c15.8398438,55.4404297,49.5,87.7802734,100.9804688,87.7802734
				c36.9599609,0,64.0205078-19.1396484,64.0205078-49.5c0-32.3408203-22.4404297-45.5400391-81.1806641-62.0410156
				c-72.6005859-20.4599609-100.3203125-43.5595703-100.3203125-86.4599609
				c0-43.5605469,38.9404297-83.1601562,96.3603516-83.1601562c35.6396484,0,64.6806641,13.2001953,79.8603516,36.2998047
				l7.9199219-36.2998047h21.1201172v100.3203125h-20.4599609c-21.1201172-51.4804688-42.2402344-77.2207031-88.4404297-77.2207031
				c-31.6806641,0-58.0800781,17.8203125-58.0800781,46.2001953c0,29.7001953,23.7597656,45.5400391,78.5400391,60.7207031
				c73.9208984,21.1201172,100.9804688,39.5996094,100.9804688,87.7802734c0,44.2207031-37.6201172,86.4609375-98.3408203,86.4609375
				c-42.8994141,0-75.9003906-17.1601562-96.3603516-42.9003906l-7.2597656,42.9003906h-21.1201172V1415.8828125z"/>
			<path class="st0" d="M4078.0449219,1415.8828125h21.7802734c15.8398438,55.4404297,49.5,87.7802734,100.9804688,87.7802734
				c36.9599609,0,64.0205078-19.1396484,64.0205078-49.5c0-32.3408203-22.4404297-45.5400391-81.1806641-62.0410156
				c-72.6005859-20.4599609-100.3203125-43.5595703-100.3203125-86.4599609
				c0-43.5605469,38.9394531-83.1601562,96.3603516-83.1601562c35.6396484,0,64.6806641,13.2001953,79.8603516,36.2998047
				l7.9199219-36.2998047h21.1201172v100.3203125h-20.4599609c-21.1201172-51.4804688-42.2402344-77.2207031-88.4404297-77.2207031
				c-31.6806641,0-58.0800781,17.8203125-58.0800781,46.2001953c0,29.7001953,23.7597656,45.5400391,78.5400391,60.7207031
				c73.9208984,21.1201172,100.9804688,39.5996094,100.9804688,87.7802734c0,44.2207031-37.6201172,86.4609375-98.3408203,86.4609375
				c-42.8994141,0-75.9003906-17.1601562-96.3603516-42.9003906l-7.2597656,42.9003906h-21.1201172V1415.8828125z"/>
			<path class="st0" d="M4357.2236328,1450.203125c0-18.4804688,5.9404297-37.6201172,19.140625-50.8203125
				c21.7802734-21.7802734,52.140625-31.0205078,112.8603516-41.5800781
				c41.5800781-7.2607422,47.5205078-9.2402344,47.5205078-19.8007812v-27.7197266
				c0-47.5205078-25.0800781-64.0205078-62.7001953-64.0205078c-25.7402344,0-49.5,7.9199219-62.0400391,20.4599609
				c11.2197266,6.6005859,17.8193359,15.8398438,17.8193359,29.0400391c0,18.4804688-13.2001953,31.6806641-31.0195312,31.6806641
				c-18.4804688,0-31.0205078-12.5400391-31.0205078-33.6601562c0-38.2802734,54.1201172-69.9609375,110.8808594-69.9609375
				c67.3203125,0,100.3203125,29.0400391,100.3203125,87.1210938v156.4208984
				c0,25.0800781,9.2402344,29.7001953,19.7998047,29.7001953c12.5400391,0,20.4599609-8.5800781,29.0400391-27.7207031
				l16.5009766,7.9199219c-14.5205078,31.0205078-25.7402344,47.5205078-55.4404297,47.5205078
				c-27.0605469,0-46.2001953-15.1796875-47.5205078-55.4404297h-1.3203125
				c-22.4394531,33.6601562-58.7402344,56.7607422-100.3203125,56.7607422
				C4386.9238281,1526.1035156,4357.2236328,1496.4033203,4357.2236328,1450.203125z M4536.7451172,1431.7226562v-64.0205078
				c-5.9404297,1.9804688-19.1396484,3.9599609-34.3203125,6.6005859c-70.6201172,11.2197266-99,29.7001953-99,69.2998047
				c0,36.3007812,19.7998047,54.1201172,54.1201172,54.1201172
				C4497.1445312,1497.7226562,4536.7451172,1465.3828125,4536.7451172,1431.7226562z"/>
			<path class="st0" d="M4786.2177734,1415.2226562c-14.5195312,0-29.0400391-1.9804688-40.9199219-1.9804688
				c-21.7802734,0-38.2802734,12.5400391-38.2802734,27.0605469c0,18.4804688,25.0800781,26.4003906,59.4003906,26.4003906
				h77.2207031c55.4404297,0,79.2001953,22.4404297,79.2001953,61.3798828
				c0,52.8007812-56.1005859,95.7011719-142.5605469,95.7011719c-78.5410156,0-123.4208984-29.7001953-123.4208984-68.640625
				c0-29.7001953,25.7402344-52.140625,62.7001953-60.0605469v-1.3203125
				c-35.6396484-9.8994141-48.8398438-23.0996094-48.8398438-44.2197266s21.1201172-39.6005859,56.1005859-47.5205078
				c-32.3408203-17.1601562-51.4804688-40.9199219-51.4804688-81.1806641c0-61.3798828,50.8203125-96.3603516,110.2207031-96.3603516
				c16.5,0,34.3193359,3.9599609,50.8203125,10.5605469c20.4599609-36.3007812,46.2001953-59.4003906,75.2402344-59.4003906
				c19.7998047,0,34.3203125,12.5400391,34.3203125,31.6796875c0,15.8398438-10.5605469,29.0400391-27.7207031,29.0400391
				c-15.1796875,0-24.4199219-11.2197266-24.4199219-25.7402344c0-1.9794922,0-3.9599609,0.6601562-6.5996094
				c-11.8798828,1.3203125-29.0400391,15.1796875-42.2402344,39.6005859
				c25.7402344,15.8398438,44.2197266,41.5800781,44.2197266,75.9003906
				C4896.4384766,1380.2421875,4852.21875,1415.2226562,4786.2177734,1415.2226562z M4885.21875,1539.3037109
				c0-25.0800781-17.1601562-37.6201172-47.5205078-37.6201172h-73.9199219
				c-40.2607422,0-65.3408203,18.4794922-65.3408203,51.4794922c0,29.0400391,27.7207031,48.1806641,83.8203125,48.1806641
				C4845.6181641,1601.34375,4885.21875,1574.9433594,4885.21875,1539.3037109z M4850.8984375,1320.1826172
				c0-42.2402344-24.4199219-75.2412109-66.6601562-75.2412109c-36.9599609,0-63.3603516,25.0800781-63.3603516,75.2412109
				c0,49.5,29.0400391,73.9199219,67.9804688,73.9199219
				C4827.1386719,1394.1025391,4850.8984375,1367.7021484,4850.8984375,1320.1826172z"/>
			<path class="st0" d="M4967.7158203,1494.4228516h56.7597656v-239.5810547h-56.7597656v-26.4003906h99v265.9814453h56.7607422
				v26.4003906h-155.7607422V1494.4228516z M5009.2958984,1125.4814453c0-18.4804688,13.2001953-33.0009766,32.3398438-33.0009766
				c16.5,0,31.0205078,13.2001953,31.0205078,32.3408203c0,19.7998047-13.8603516,33-31.0205078,33
				C5023.15625,1157.8212891,5009.2958984,1145.28125,5009.2958984,1125.4814453z"/>
			<path class="st0" d="M5157.7880859,1494.4228516h50.1601562v-239.5810547h-50.1601562v-26.4003906h91.0800781v75.9003906
				c36.3007812-63.3603516,77.8808594-81.8398438,112.2011719-81.8398438c51.4794922,0,80.5195312,31.6796875,80.5195312,93.7197266
				v178.2011719h49.5009766v26.4003906h-137.9414062v-26.4003906h46.2001953v-154.4404297
				c0-32.3408203-3.9599609-54.7802734-17.1591797-67.9804688c-10.5605469-11.2197266-24.4208984-14.5205078-39.6005859-14.5205078
				c-49.5,0-92.4003906,57.4208984-92.4003906,95.0410156v141.9003906h46.2001953v26.4003906h-138.6005859V1494.4228516z"/>
			<path class="st0" d="M5648.1679688,1415.2226562c-14.5195312,0-29.0400391-1.9804688-40.9199219-1.9804688
				c-21.7802734,0-38.2802734,12.5400391-38.2802734,27.0605469c0,18.4804688,25.0800781,26.4003906,59.4003906,26.4003906
				h77.2207031c55.4404297,0,79.2001953,22.4404297,79.2001953,61.3798828
				c0,52.8007812-56.1005859,95.7011719-142.5605469,95.7011719c-78.5410156,0-123.4208984-29.7001953-123.4208984-68.640625
				c0-29.7001953,25.7402344-52.140625,62.7001953-60.0605469v-1.3203125
				c-35.6396484-9.8994141-48.8398438-23.0996094-48.8398438-44.2197266s21.1201172-39.6005859,56.1005859-47.5205078
				c-32.3408203-17.1601562-51.4804688-40.9199219-51.4804688-81.1806641c0-61.3798828,50.8203125-96.3603516,110.2207031-96.3603516
				c16.5,0,34.3203125,3.9599609,50.8203125,10.5605469c20.4599609-36.3007812,46.2001953-59.4003906,75.2402344-59.4003906
				c19.7998047,0,34.3203125,12.5400391,34.3203125,31.6796875c0,15.8398438-10.5605469,29.0400391-27.7207031,29.0400391
				c-15.1796875,0-24.4199219-11.2197266-24.4199219-25.7402344c0-1.9794922,0-3.9599609,0.6601562-6.5996094
				c-11.8798828,1.3203125-29.0400391,15.1796875-42.2402344,39.6005859
				c25.7402344,15.8398438,44.2197266,41.5800781,44.2197266,75.9003906
				C5758.3886719,1380.2421875,5714.1689453,1415.2226562,5648.1679688,1415.2226562z M5747.1689453,1539.3037109
				c0-25.0800781-17.1601562-37.6201172-47.5205078-37.6201172h-73.9199219
				c-40.2607422,0-65.3408203,18.4794922-65.3408203,51.4794922c0,29.0400391,27.7207031,48.1806641,83.8203125,48.1806641
				C5707.5683594,1601.34375,5747.1689453,1574.9433594,5747.1689453,1539.3037109z M5712.8486328,1320.1826172
				c0-42.2402344-24.4199219-75.2412109-66.6601562-75.2412109c-36.9599609,0-63.3603516,25.0800781-63.3603516,75.2412109
				c0,49.5,29.0400391,73.9199219,67.9804688,73.9199219
				C5689.0888672,1394.1025391,5712.8486328,1367.7021484,5712.8486328,1320.1826172z"/>
		</g>
	</g>
</svg>
