<svg width="50" height="50" viewBox="0 0 50 50" fill="none" xmlns="http://www.w3.org/2000/svg">
<path d="M25 50C38.8071 50 50 38.8071 50 25C50 11.1929 38.8071 0 25 0C11.1929 0 0 11.1929 0 25C0 38.8071 11.1929 50 25 50Z" fill="#154946"/>
<path d="M18 14.92H6.37001V18.1H18C19.48 18.1 20.17 18.81 20.17 20.1V21.41C20.17 22.7 19.48 23.41 18 23.41H10.89C7.89001 23.41 6.29001 24.64 5.70001 26.59H18C21.95 26.59 23.46 24.48 23.46 21.38V20.13C23.42 17 21.91 14.92 18 14.92Z" fill="white"/>
<path d="M23.42 31.9H5.42999V35.09H23.42V31.9Z" fill="white"/>
<path d="M39.11 14.92H27.52V18.1H39.11C40.59 18.1 41.28 18.81 41.28 20.1V21.41C41.28 22.7 40.59 23.41 39.11 23.41H32C29 23.41 27.4 24.64 26.81 26.59H39.11C43.11 26.59 44.57 24.48 44.57 21.38V20.13C44.57 17 43.06 14.92 39.11 14.92Z" fill="white"/>
<path d="M44.57 31.9H26.58V35.09H44.57V31.9Z" fill="white"/>
</svg>
